<svg xmlns="http://www.w3.org/2000/svg" viewBox="0 0 58 58"><path d="M39.741 9L30.861.733a2.733 2.733 0 0 0-3.723 0L18.259 9h21.482z" fill="#c64645"/><path fill="#f2ecbf" d="M52 9H6v21.571L21 42h16l15-11.429z"/><path d="M32 18h-6a1 1 0 1 1 0-2h6a1 1 0 1 1 0 2zm9 16h-6a1 1 0 1 1 0-2h6a1 1 0 1 1 0 2zm-19-8h-5a1 1 0 1 1 0-2h5a1 1 0 1 1 0 2zm15 0h-7a1 1 0 1 1 0-2h7a1 1 0 1 1 0 2zm-11 0c-.26 0-.521-.11-.71-.29A1.05 1.05 0 0 1 25 25c0-.271.109-.53.29-.71.37-.37 1.05-.37 1.42 0 .18.189.29.439.29.71 0 .26-.11.52-.29.71-.19.179-.45.29-.71.29zm5 8H21a1 1 0 1 1 0-2h10a1 1 0 1 1 0 2zm-14 0c-.26 0-.521-.11-.71-.29-.19-.191-.29-.451-.29-.71s.1-.521.29-.71c.37-.37 1.05-.37 1.42 0 .18.189.29.45.29.71s-.11.52-.29.71c-.19.179-.44.29-.71.29zm24-8c-.26 0-.521-.11-.71-.29a1.01 1.01 0 0 1 0-1.42c.37-.37 1.04-.37 1.42 0 .18.189.29.439.29.71 0 .26-.11.52-.29.71-.19.179-.45.29-.71.29z" fill="#bab395"/><path fill="#c64645" d="M6.107 30.653L6 30.571V20.413l-6 5.586V26l6.107 4.653zM52 20.413v10.158l-.208.158h.001L58 26v-.001z"/><path fill="#ed7161" d="M0 58h58L37 42H21z"/><path fill="#d75a4a" d="M0 58V26l21 16z"/><path fill="#e95853" d="M58 58V26L37 42z"/></svg>