<svg xmlns="http://www.w3.org/2000/svg" viewBox="0 0 105.751 105.751" width="512" height="512"><path d="M64.269 61.825c3.233-.092 5.096-1.549 7.693-2.279 2.114-1.301 5.561-1.273 7.689-2.562 2.801-.621 4.5-2.338 6.552-3.701 1.923-1.496 3.74-3.096 5.698-4.558 1.383-2.418 3.18-4.414 3.702-7.695v-7.402c-.485-3.312-1.453-6.144-2.278-9.117-.574-.373-.963-.935-1.14-1.707a13.086 13.086 0 0 1-2.562-2.561c-1.299-.51-2.457-1.16-3.137-2.281.644-.209.113-1.6.286-2.277.644-.213.112-1.601.284-2.279.817-.041-.248-1.955.568-1.996-.221-1.176.439-1.463.289-2.564.516-2.568 2.285-6.289.568-8.543-.367-.396-1.239-.283-1.996-.287-.336.137-.645.305-.854.57-1.163.451-1.744 1.483-2.848 1.996-.751.859-2.013 1.213-2.564 2.279-1.953 1.365-3.371 3.271-5.413 4.555-1.308-.072-1.769.697-2.847.853-1.217.016-2.088.383-3.135.574-2.16.303-4.308.627-6.553.852-.979.125-1.594-.113-2.279-.285-.896-.139-.645.873-1.707.572-2.825-.371-6.92.234-10.54 0-1.135-.293-2.433-.418-3.704-.572-1.461-.91-2.766-1.98-3.705-3.422-2.373-.754-4.037-2.221-6.549-2.846-1.457-.44-1.551-2.248-3.703-1.994-2.42.143-2.675 2.451-3.416 4.273.069 4.389-.49 7.834 0 11.965-.103.943-.854 1.232-1.425 1.711-.51.535-.773 1.315-1.425 1.707-.854 1.236-1.44 2.74-2.281 3.986-.144 1.756-.697 3.102-.854 4.84v7.125c.57.965.306 2.109.57 3.133.03.123.513.695.569.857.152.422.188.854.287 1.137.279.836.537 1.375.566 1.996.016.283.254.182.287.285.539 1.58.783 3.195 1.426 4.557.254.543.772 1.119 1.139 1.711.479.77.612.992 1.141 1.42.094.078-.082.473 0 .574.989 1.207 2.429 1.838 3.133 3.131 2.388 1.123 4.455 2.568 7.975 2.564.212.641 1.596.109 2.281.283.412.441 1.455.254 2.275.287 1.398.408 2.989.621 4.846.568-.651.775-1.262 1.586-1.995 2.279-.538.98-1.78 1.258-1.997 2.564-.9.809-.505 2.91-1.424 3.703-3.181.139-5.987-.09-7.975-1.141-2.75-3.037-3.968-7.613-7.69-9.686-2.846-.516-5.751.219-8.831.285-1.202.979-2.783 1.588-3.987 2.562-1.45.736-3.122 1.252-3.136 3.42 2.914 2.176 5.346-1.805 8.55-1.994 1.871-.068 3.104.502 5.126.285 1.205 1.547 2.091 3.414 2.85 5.41.989 1.195 2.035 2.334 2.85 3.705.709-.051.887.439 1.138.855 2.018 1.018 4.276 1.797 7.12 1.994h4.274c1.476 1.629 1.757 4.047 1.422 6.549-.058.439-.413.936-.567 1.428-.287.877-.408 1.623-.572 2.275-.253 1.012-1.193 1.883-1.14 2.85-1.831 1.395-3.321 3.131-6.553 3.135-1.957-.037-1.927-2.059-4.27-1.713-.254-1.072-.396-2.258-1.993-1.992-1.222.5-1.366 2.914-.857 4.277.468 1.43 1.165 2.631 1.71 3.982 2.192 1.795 6.56 1.42 10.54 1.426.598-.543 1.356-.918 2.28-1.141 2.017-2.445 3.775-5.146 5.695-7.691.202-1.316.94-2.1 1.138-3.416.332-.926 1.471-2.162 2.279-1.707.557 4.191.174 9.316.285 13.955-.629.984-.88 2.352-1.424 3.418-1.592-.076-2.637.404-3.419 1.143.28 1.619 1.216 2.582 2.278 3.414 2.973.316 4.619-.699 6.268-1.707.789-1.777 1.533-3.596 1.994-5.695.108-3.609-.061-7.912 0-12.248.381-1.619.854-3.139.855-5.131.604-1.391.038-3.947.855-5.125.063 1.832.455 3.34.287 5.41.99 6.51 4.521 10.482 6.547 15.953 2.011 1.885 3.97 3.818 7.691 3.986.244-.424.92-.414 1.425-.568.669-.945 1.378-1.852 1.141-3.701-.224-.064-.332-.24-.284-.574-.784-1.682-3.238-1.697-4.56-2.846-.786-2.535-2.345-4.301-3.417-6.555-.694-2.152-1.249-4.445-2.283-6.264.084-1.506-.734-2.113-.566-3.701-.59-.074-.076-1.252-.57-1.426-.213-.975 1.158-.363.857-1.424 1.192 1.176 1.647 3.096 2.278 4.838 1.854 2.803 3.562 5.744 6.264 7.693 2.239 2.514 5.177 4.322 9.118 5.129h3.701c.046-.525.967-.176 1.139-.57.191-.383.613-.531 1.141-.57 1.033-1.053 1.723-2.453 2.562-3.705.578-1.322 1.092-4.285-.283-5.125-3.572-.061-3.897 3.131-6.838 3.703-5.34-1.229-8.855-5.508-11.105-9.4-.169-.283-.111-.531-.288-.854-1.569-2.883-3.458-5.752-4.56-8.832-.841-.678-1.352-1.684-1.991-2.56a2.569 2.569 0 0 1-1.138-1.139c-.553.132-1.454-.768-.854-.858zm16.81-43.01c.012.017.259-.537.284-.572.016-.019-.023-.283 0-.283 1.014-.178.027 1.265-.284.855zm-1.712 7.121c-.582-.086-.559-.773-1.14-.855.401-1.5 1.284-2.516 1.71-3.986.512-.039.601.344 1.142.285.468 2.556-1.304 2.87-1.712 4.556zm1.996 2.848c-.015-1.246.709-1.758 1.139-2.565.502.26.521.996.854 1.424.072 1.021-.855 1.045-.854 1.998-.581-.084-.559-.775-1.139-.857zm8.543 11.109c.606.09-.041 1.242-.281 1.424.135.898-.41 1.113-.571 1.709-.846.674-.8 2.24-2.279 2.279-1.329-.021.335-.652.284-1.141.26-.504.689-.832.857-1.422.887-.728 1.391-1.833 1.99-2.849zm-2.279-2.566c-.012-.867.605-1.106.857-1.705 1.381.363-.206 2.511-.857 1.705zm.289-11.391c.716 1.037 2.074 3.336.852 4.555-1.139-.287-1.141-1.707-1.993-2.277.132-1.008.719-1.559 1.141-2.278zm-.858 13.387c-.995.996-1.84 2.145-2.562 3.42-.92-.756.241-1.83.57-2.279.58-.557.933-1.346 1.422-1.996.35.124.588.366.57.855zm-.854-15.383c-.005.568-.776.363-.569 1.141-1.079-.154-1.256-1.213-1.426-2.279 1.168-.122 1.491.599 1.995 1.138zm-1.138 6.84c.947.695 1.962 2.256.855 3.416-.901-.242-.812-1.471-1.713-1.711.273-.58.585-1.131.858-1.705zm-1.711 6.547c-1.045-.584-.016-1.484-.287-2.844.633.223.715.992 1.141 1.422.139.894-.764.75-.854 1.422zm.571-31.047c.824.936-.551 2.098-.284 3.42-1.217.076-1.24-1.041-1.995-1.428.637-.785 1.788-1.057 2.279-1.992zm-4.274 3.133h.855c.014 1.945 2.867 2.043 1.994 3.99-1.472-.525-2.123-1.867-3.135-2.85-.118-.597.196-.754.286-1.14zm-1.709 3.707c.461-.084.491.266.855.283.093 1.326 1.616 1.229 1.709 2.561-.385.281-.57.762-.855 1.141-1.444-.168-1.449-1.773-2.564-2.277.113-.742.851-.863.855-1.708zm0 15.093c-.986.199-1.021-.998-.568-1.426.576.208 1.16.86.568 1.426zm-2.56-15.668c.148-.439.293-.018.283.285-.51.083-.585-.269-.283-.285zm.283 4.842c.461-.078.488.271.854.285.005 1.23 1.42 1.049 1.424 2.281-.891 1.197-1.438 2.74-2.277 3.986-1.278-.145-1.961-.887-2.851-1.422 1.006-1.655 1.842-3.474 2.85-5.13zm-1.426 9.686h-3.704c.008-.852.743-.971.857-1.711.729.035.998.527 1.423.857.727.035 1.463.055 1.424.854zm-2.277-12.246c-.08-.463.269-.49.283-.858 1.105-.246 1.015.697 1.711.858-.414 1.199-1.48 1.748-1.711 3.133-1.096.518-.854 2.373-2.278 2.564-1.119-.84-.127-2.201.568-2.851.317-1.108.79-2.059 1.427-2.846zm-2.28-.573a40.866 40.866 0 0 0-2.278 3.705c-2.19-.9-.772-4.644 2.278-3.705zm-1.994 8.264c.564 0 .363.773 1.139.566-.105 1.695-1.209 2.4-.851 4.559-.254-.221-.645-.307-1.143-.283.609-1.066-.032-1.619-.569-2.279.295-1.034.945-1.717 1.424-2.563zm-1.996-1.994c-.313 1.486-1.463 2.137-1.71 3.701-.577-.271-1.127-.582-1.708-.856.523-1.471 1.608-2.381 1.994-3.986.836.018 1.057.649 1.424 1.141zm-1.136-5.983c.146.145-.207.361-.287.285-.147-.15.208-.363.287-.285zm-4.843 4.557c.61-.527.753-1.529 1.423-1.994-.082-.461.27-.488.289-.857.58.086.555.773 1.135.857-.192 1.039-1.078 1.391-1.424 2.279-.638.596-.694 1.773-1.709 1.996-.942-.699-.065-1.386.286-2.281zm2.277 7.69c-.124.641-1.403.115-1.995.285.104-.373.503-.447.57-.854.879-.215.547.783 1.425.569zM51.737 14.541h7.69c-.359 1.916-1.985 2.572-2.562 4.274-.851-.004-.967-.742-1.711-.856.216-1.213 1.332-1.518 1.141-3.133-1.443-.117-1.668.994-2.564 1.42-.713.053-.89-.436-1.137-.854-.268-.302-1.051-.087-.857-.851zm6.267 12.532c-.489.654-2.174.103-3.137.287.69-1.217 1.539-2.262 1.998-3.703.422.145.719.422 1.139.568-.623.682-.783 2.195 0 2.848zm-4.559-2.848c-.834-.021-1.055-.652-1.424-1.141.214-1.117 1.113-1.545 1.424-2.561.662.19.762.943 1.422 1.137-.443.885-.843 1.815-1.422 2.565zm-1.424 3.135c-.772.174-2.26-.359-2.561.283-.852-.592.713-1.158.566-1.994.718.517 1.952.516 1.995 1.711zm-2.56-10.256c.911.225 1.241 1.031 1.99 1.424-.236 1.279-1.469 1.566-1.709 2.852-.934-.113-1.254-.836-1.993-1.139.145-1.473 1.495-1.737 1.712-3.137zm-6.84-2.563v.285c2.342-.68 3.188 1.133 5.415.281.049 1-.964.941-1.144 1.713-.749.197-.602 1.293-1.422 1.422-1.371-.432-2.178-1.428-3.135-2.279-.064-.537.324-.625.285-1.137-.686-.117-.619.519-1.425.281-.291-.956.888-.441 1.426-.566zm4.845 9.116c-.401 1.873-2.176 2.383-2.279 4.557-.827-.219-1.64-.451-1.997-1.141.439-1.744 1.738-2.631 2.281-4.271 1.103-.155 1.173.726 1.995.855zm-6.838-5.129c.149.149-.208.367-.288.287-.143-.149.208-.365.288-.287zm.568.57c.624.611 1.585.885 1.993 1.709-.788 1.775-2.201 2.924-2.85 4.842-1.163-.445-2.141-1.086-3.133-1.709.693-2.252 3.133-2.758 3.99-4.842zM38.348 30.78c-.951.186-1.393.885-2.274 1.139-1.122-.213-1.55-1.111-2.567-1.428.363-1.631 1.43-2.557 1.996-3.986 1.66.045 2.117 1.299 3.416 1.709-.306.738-.693 1.398-.571 2.566zm-6.266-3.992c-.527.5-.861 2.129-1.709 1.426.469-1.717 1.482-2.883 2.279-4.273.377.101.449.502.854.568-.196 1.04-1.078 1.39-1.424 2.279zm2.28-5.127c.147.148-.206.361-.286.285-.148-.145.209-.364.286-.285zm5.698-8.258c-.769.838-1.58-.691-2.281-.857.674-.747 1.483.781 2.281.857zm-2.281 2.56c-.843 1.725-2.403 2.727-3.136 4.561-.579-.086-.556-.773-1.138-.857.623-2.033 1.84-3.478 2.85-5.125.75.195.602 1.294 1.424 1.421zm-6.268-2.843V8.842c1.351.74 2.956 1.223 4.274 1.998-.584.266-.791.916-1.142 1.422.156 1.006-1.009.701-.853 1.707-.926.781-1.48 1.941-1.992 3.135-.659-.768-.101-2.748-.287-3.984zm-.852 6.546c.149-.439.296-.019.284.287-.51.079-.583-.269-.284-.287zm-.571 1.995c1.312.514-.67 1.246-.566 2.279-.831.406-.648 1.826-1.713 1.996.196-1.99 1.5-2.871 2.279-4.275zm-3.416 14.812c.723-2.024 1.503-4 2.275-5.983h.857c-.547 1.666-1.682 3.846-.857 5.983-.707.721-1.473 1.375-1.707 2.566-.732-.316-.562-1.531-.568-2.566zm6.263-2.277c-.787.068-.648 1.059-1.137 1.426-.117.686.517.617.283 1.422-2.443 2.654-3.17 9.92-1.139 13.674.344-.029.175.414 0 0-1.695-1.438-2.409-3.855-3.135-6.268.422-2.713 1.751-4.518 2.279-7.123.66-.191.764-.943 1.423-1.141-.2-1.055.487-1.221.288-2.277.332-.172.414-2.006 1.137-.855 1.256-.04.081.808.001 1.142zm14.531 21.65c-2.874-.359-5.729-.73-8.548-1.141-1.062-.932-2.092-1.896-2.845-3.137a10.68 10.68 0 0 1-1.143-1.988c-.503-.451-.375-1.529-.854-1.998-.024-2.777.257-5.248.567-7.689.413-1.676 1.786-2.393 2.563-3.707 1.209-.881 2.054-2.125 3.421-2.844.651-.207 1.455-.256 1.993-.572.51-.346 1.659-.049 1.994-.566 6.941.385 11.861-1.242 18.799-.855 1.465.228 1.871-.604 3.135-.568h6.267c.458.076.494-.273.854-.289.87-.207.842.492 1.714.289.72.033 1.104.41 1.137 1.139.375.289 1.047.277 1.424.566.852 2.57 1.904 4.936 2.564 7.695v4.555c-.902 3.084-2.186 5.791-3.7 8.262-1.013.795-2.643.965-3.704 1.709-.636.225-1.111.6-1.997.568-.101.756-1.45.26-1.708.855-7.672.646-14.307-.196-21.933-.284zm23.358-8.832c2.287.195 2.596-1.582 3.416-2.85-.043-3.562.578-7.795-2.848-7.979h-.568c-1.201 1.174-2.537 2.223-3.135 3.994-.043 1.56-.029 3.068.287 4.269 1.072.734 1.075 2.535 2.848 2.566zm-29.059.852c1.245.82 2.856.992 4.277.287 2.066-2.088 1.109-7.662-.289-9.686-4.765-1.427-5.788 5.916-3.988 9.399zm16.239.287c.048-.33.449-.307.855-.287.572-.67.752-1.908.287-2.844-1.072-1.024-3.078-.453-3.139 1.139.17 1.164.835 1.822 1.997 1.992zm1.142 3.135c-.941.01-1.422.479-2.566.281-1.864-.127-1.971-2.016-3.986-1.988-.16.406-.445.693-.857.85.449 2.971 3.085 3.75 6.267 3.992.666-.092 1.067-.451 1.992-.289 1.387-.92 4.637-2.285 2.85-4.553-1.977-.18-2.43 1.171-3.7 1.707z" fill="#933EC5" fill-rule="evenodd" clip-rule="evenodd"/></svg>